<svg width="960" height="260" viewBox="0 0 960 260" fill="none" xmlns="http://www.w3.org/2000/svg">
  <defs>
    <linearGradient id="bg" x1="0" y1="0" x2="960" y2="260" gradientUnits="userSpaceOnUse">
      <stop offset="0" stop-color="#FFF1F7"/>
      <stop offset="0.45" stop-color="#F7ECFF"/>
      <stop offset="1" stop-color="#EAF6FF"/>
    </linearGradient>
    <linearGradient id="ink" x1="220" y1="50" x2="760" y2="210" gradientUnits="userSpaceOnUse">
      <stop stop-color="#FF6FAE"/>
      <stop offset="0.5" stop-color="#A56CFF"/>
      <stop offset="1" stop-color="#5AA9FF"/>
    </linearGradient>
    <filter id="softShadow" x="-20%" y="-20%" width="140%" height="140%">
      <feDropShadow dx="0" dy="12" stdDeviation="18" flood-color="#D8B4FE" flood-opacity="0.22"/>
    </filter>
  </defs>

  <rect width="960" height="260" rx="34" fill="url(#bg)"/>
  <circle cx="112" cy="62" r="64" fill="#FFD6E7" opacity="0.72">
    <animate attributeName="cy" values="62;78;62" dur="6s" repeatCount="indefinite"/>
  </circle>
  <circle cx="828" cy="196" r="78" fill="#CDEBFF" opacity="0.7">
    <animate attributeName="cx" values="828;806;828" dur="7s" repeatCount="indefinite"/>
  </circle>
  <circle cx="780" cy="58" r="36" fill="#E4C7FF" opacity="0.55">
    <animate attributeName="r" values="36;44;36" dur="5s" repeatCount="indefinite"/>
  </circle>

  <g filter="url(#softShadow)">
    <rect x="80" y="46" width="800" height="168" rx="30" fill="white" opacity="0.78"/>
    <rect x="94" y="60" width="772" height="140" rx="24" stroke="#FFD0E2" stroke-width="2" stroke-dasharray="8 10"/>
  </g>

  <text x="480" y="118" text-anchor="middle" font-family="Verdana, Arial, sans-serif" font-size="50" font-weight="800" fill="url(#ink)">
    Lvyux1n
  </text>
  <text x="480" y="152" text-anchor="middle" font-family="Verdana, Arial, sans-serif" font-size="18" fill="#6B6170">
    SEO Writing Studio | Product Stories | Google-Friendly Pages
  </text>

  <g font-family="Verdana, Arial, sans-serif" font-size="13" font-weight="700">
    <rect x="276" y="172" width="102" height="28" rx="14" fill="#FFE0EC"/>
    <text x="327" y="191" text-anchor="middle" fill="#B63D73">IELTS 7.0</text>
    <rect x="392" y="172" width="92" height="28" rx="14" fill="#EAD8FF"/>
    <text x="438" y="191" text-anchor="middle" fill="#7650BC">N2 Prep</text>
    <rect x="498" y="172" width="92" height="28" rx="14" fill="#DDF1FF"/>
    <text x="544" y="191" text-anchor="middle" fill="#3576AA">Chinese</text>
    <rect x="604" y="172" width="108" height="28" rx="14" fill="#FFF0C7"/>
    <text x="658" y="191" text-anchor="middle" fill="#9B6A19">Sichuanese</text>
  </g>

  <g fill="#FF8FAB" opacity="0.78">
    <path d="M184 92l7 15 16 2-12 11 3 16-14-8-14 8 3-16-12-11 16-2 7-15z"/>
    <path d="M760 86l5 11 12 2-9 8 2 12-10-6-10 6 2-12-9-8 12-2 5-11z"/>
  </g>
</svg>
